<mxfile host="app.diagrams.net" agent="Mozilla/5.0 (Windows NT 10.0; Win64; x64) AppleWebKit/537.36 (KHTML, like Gecko) Chrome/132.0.0.0 Safari/537.36" version="24.8.4">
  <diagram id="C5RBs43oDa-KdzZeNtuy" name="Page-1">
    <mxGraphModel dx="1434" dy="1915" grid="1" gridSize="10" guides="1" tooltips="1" connect="1" arrows="1" fold="1" page="1" pageScale="1" pageWidth="827" pageHeight="1169" math="0" shadow="0">
      <root>
        <mxCell id="WIyWlLk6GJQsqaUBKTNV-0" />
        <mxCell id="WIyWlLk6GJQsqaUBKTNV-1" parent="WIyWlLk6GJQsqaUBKTNV-0" />
        <mxCell id="-dKLI6m3g1VmYk872qav-10" style="edgeStyle=orthogonalEdgeStyle;rounded=0;orthogonalLoop=1;jettySize=auto;html=1;" edge="1" parent="WIyWlLk6GJQsqaUBKTNV-1" source="-dKLI6m3g1VmYk872qav-0" target="-dKLI6m3g1VmYk872qav-4">
          <mxGeometry relative="1" as="geometry" />
        </mxCell>
        <mxCell id="-dKLI6m3g1VmYk872qav-0" value="start" style="ellipse;whiteSpace=wrap;html=1;" vertex="1" parent="WIyWlLk6GJQsqaUBKTNV-1">
          <mxGeometry x="340" y="-20" width="120" height="60" as="geometry" />
        </mxCell>
        <mxCell id="-dKLI6m3g1VmYk872qav-12" style="edgeStyle=orthogonalEdgeStyle;rounded=0;orthogonalLoop=1;jettySize=auto;html=1;" edge="1" parent="WIyWlLk6GJQsqaUBKTNV-1" source="-dKLI6m3g1VmYk872qav-1" target="-dKLI6m3g1VmYk872qav-2">
          <mxGeometry relative="1" as="geometry" />
        </mxCell>
        <mxCell id="-dKLI6m3g1VmYk872qav-13" style="edgeStyle=orthogonalEdgeStyle;rounded=0;orthogonalLoop=1;jettySize=auto;html=1;" edge="1" parent="WIyWlLk6GJQsqaUBKTNV-1" source="-dKLI6m3g1VmYk872qav-1" target="-dKLI6m3g1VmYk872qav-3">
          <mxGeometry relative="1" as="geometry" />
        </mxCell>
        <mxCell id="-dKLI6m3g1VmYk872qav-1" value="is queue&lt;div&gt;empty?&lt;/div&gt;" style="rhombus;whiteSpace=wrap;html=1;" vertex="1" parent="WIyWlLk6GJQsqaUBKTNV-1">
          <mxGeometry x="350" y="160" width="100" height="100" as="geometry" />
        </mxCell>
        <mxCell id="-dKLI6m3g1VmYk872qav-2" value="no such path exists between the points" style="rounded=1;whiteSpace=wrap;html=1;" vertex="1" parent="WIyWlLk6GJQsqaUBKTNV-1">
          <mxGeometry x="490" y="185" width="100" height="50" as="geometry" />
        </mxCell>
        <mxCell id="-dKLI6m3g1VmYk872qav-18" style="edgeStyle=orthogonalEdgeStyle;rounded=0;orthogonalLoop=1;jettySize=auto;html=1;" edge="1" parent="WIyWlLk6GJQsqaUBKTNV-1" source="-dKLI6m3g1VmYk872qav-3" target="-dKLI6m3g1VmYk872qav-5">
          <mxGeometry relative="1" as="geometry" />
        </mxCell>
        <mxCell id="-dKLI6m3g1VmYk872qav-3" value="dequeue the next square&amp;nbsp;" style="rounded=1;whiteSpace=wrap;html=1;" vertex="1" parent="WIyWlLk6GJQsqaUBKTNV-1">
          <mxGeometry x="350" y="300" width="100" height="50" as="geometry" />
        </mxCell>
        <mxCell id="-dKLI6m3g1VmYk872qav-11" style="edgeStyle=orthogonalEdgeStyle;rounded=0;orthogonalLoop=1;jettySize=auto;html=1;" edge="1" parent="WIyWlLk6GJQsqaUBKTNV-1" source="-dKLI6m3g1VmYk872qav-4" target="-dKLI6m3g1VmYk872qav-1">
          <mxGeometry relative="1" as="geometry" />
        </mxCell>
        <mxCell id="-dKLI6m3g1VmYk872qav-4" value="add start cell to queue" style="rounded=1;whiteSpace=wrap;html=1;" vertex="1" parent="WIyWlLk6GJQsqaUBKTNV-1">
          <mxGeometry x="350" y="80" width="100" height="50" as="geometry" />
        </mxCell>
        <mxCell id="-dKLI6m3g1VmYk872qav-19" style="edgeStyle=orthogonalEdgeStyle;rounded=0;orthogonalLoop=1;jettySize=auto;html=1;" edge="1" parent="WIyWlLk6GJQsqaUBKTNV-1" source="-dKLI6m3g1VmYk872qav-5" target="-dKLI6m3g1VmYk872qav-6">
          <mxGeometry relative="1" as="geometry" />
        </mxCell>
        <mxCell id="-dKLI6m3g1VmYk872qav-5" value="is the cell&amp;nbsp;&lt;div&gt;already&amp;nbsp;&lt;/div&gt;&lt;div&gt;visited?&lt;/div&gt;" style="rhombus;whiteSpace=wrap;html=1;" vertex="1" parent="WIyWlLk6GJQsqaUBKTNV-1">
          <mxGeometry x="350" y="390" width="100" height="100" as="geometry" />
        </mxCell>
        <mxCell id="-dKLI6m3g1VmYk872qav-24" style="edgeStyle=orthogonalEdgeStyle;rounded=0;orthogonalLoop=1;jettySize=auto;html=1;" edge="1" parent="WIyWlLk6GJQsqaUBKTNV-1" source="-dKLI6m3g1VmYk872qav-6" target="-dKLI6m3g1VmYk872qav-7">
          <mxGeometry relative="1" as="geometry" />
        </mxCell>
        <mxCell id="-dKLI6m3g1VmYk872qav-6" value="mark as visited" style="rounded=1;whiteSpace=wrap;html=1;" vertex="1" parent="WIyWlLk6GJQsqaUBKTNV-1">
          <mxGeometry x="350" y="534.5" width="100" height="50" as="geometry" />
        </mxCell>
        <mxCell id="-dKLI6m3g1VmYk872qav-25" style="edgeStyle=orthogonalEdgeStyle;rounded=0;orthogonalLoop=1;jettySize=auto;html=1;entryX=0;entryY=0.5;entryDx=0;entryDy=0;" edge="1" parent="WIyWlLk6GJQsqaUBKTNV-1" source="-dKLI6m3g1VmYk872qav-7" target="-dKLI6m3g1VmYk872qav-9">
          <mxGeometry relative="1" as="geometry" />
        </mxCell>
        <mxCell id="-dKLI6m3g1VmYk872qav-30" style="edgeStyle=orthogonalEdgeStyle;rounded=0;orthogonalLoop=1;jettySize=auto;html=1;" edge="1" parent="WIyWlLk6GJQsqaUBKTNV-1" source="-dKLI6m3g1VmYk872qav-7" target="-dKLI6m3g1VmYk872qav-8">
          <mxGeometry relative="1" as="geometry" />
        </mxCell>
        <mxCell id="-dKLI6m3g1VmYk872qav-7" value="is this the end&lt;div&gt;cell?&lt;/div&gt;" style="rhombus;whiteSpace=wrap;html=1;" vertex="1" parent="WIyWlLk6GJQsqaUBKTNV-1">
          <mxGeometry x="350" y="630" width="100" height="100" as="geometry" />
        </mxCell>
        <mxCell id="-dKLI6m3g1VmYk872qav-32" style="edgeStyle=orthogonalEdgeStyle;rounded=0;orthogonalLoop=1;jettySize=auto;html=1;" edge="1" parent="WIyWlLk6GJQsqaUBKTNV-1" source="-dKLI6m3g1VmYk872qav-8" target="-dKLI6m3g1VmYk872qav-31">
          <mxGeometry relative="1" as="geometry" />
        </mxCell>
        <mxCell id="-dKLI6m3g1VmYk872qav-8" value="found the shortest path" style="rounded=1;whiteSpace=wrap;html=1;" vertex="1" parent="WIyWlLk6GJQsqaUBKTNV-1">
          <mxGeometry x="350" y="770" width="100" height="50" as="geometry" />
        </mxCell>
        <mxCell id="-dKLI6m3g1VmYk872qav-9" value="enqueue all neighbouring cells" style="rounded=1;whiteSpace=wrap;html=1;" vertex="1" parent="WIyWlLk6GJQsqaUBKTNV-1">
          <mxGeometry x="490" y="655" width="100" height="50" as="geometry" />
        </mxCell>
        <mxCell id="-dKLI6m3g1VmYk872qav-15" value="" style="endArrow=classic;html=1;rounded=0;entryX=0;entryY=0.5;entryDx=0;entryDy=0;" edge="1" parent="WIyWlLk6GJQsqaUBKTNV-1" target="-dKLI6m3g1VmYk872qav-1">
          <mxGeometry width="50" height="50" relative="1" as="geometry">
            <mxPoint x="240" y="210" as="sourcePoint" />
            <mxPoint x="440" y="260" as="targetPoint" />
          </mxGeometry>
        </mxCell>
        <mxCell id="-dKLI6m3g1VmYk872qav-16" value="" style="endArrow=none;html=1;rounded=0;exitX=0;exitY=0.5;exitDx=0;exitDy=0;" edge="1" parent="WIyWlLk6GJQsqaUBKTNV-1" source="-dKLI6m3g1VmYk872qav-5">
          <mxGeometry width="50" height="50" relative="1" as="geometry">
            <mxPoint x="390" y="310" as="sourcePoint" />
            <mxPoint x="240" y="440" as="targetPoint" />
          </mxGeometry>
        </mxCell>
        <mxCell id="-dKLI6m3g1VmYk872qav-17" value="" style="endArrow=none;html=1;rounded=0;" edge="1" parent="WIyWlLk6GJQsqaUBKTNV-1">
          <mxGeometry width="50" height="50" relative="1" as="geometry">
            <mxPoint x="240" y="440" as="sourcePoint" />
            <mxPoint x="240" y="210" as="targetPoint" />
          </mxGeometry>
        </mxCell>
        <mxCell id="-dKLI6m3g1VmYk872qav-20" value="yes" style="text;html=1;align=center;verticalAlign=middle;whiteSpace=wrap;rounded=0;" vertex="1" parent="WIyWlLk6GJQsqaUBKTNV-1">
          <mxGeometry x="440" y="185" width="60" height="30" as="geometry" />
        </mxCell>
        <mxCell id="-dKLI6m3g1VmYk872qav-21" value="no" style="text;html=1;align=center;verticalAlign=middle;whiteSpace=wrap;rounded=0;" vertex="1" parent="WIyWlLk6GJQsqaUBKTNV-1">
          <mxGeometry x="354" y="260" width="60" height="30" as="geometry" />
        </mxCell>
        <mxCell id="-dKLI6m3g1VmYk872qav-22" value="yes" style="text;html=1;align=center;verticalAlign=middle;whiteSpace=wrap;rounded=0;" vertex="1" parent="WIyWlLk6GJQsqaUBKTNV-1">
          <mxGeometry x="270" y="410" width="60" height="30" as="geometry" />
        </mxCell>
        <mxCell id="-dKLI6m3g1VmYk872qav-23" value="no" style="text;html=1;align=center;verticalAlign=middle;whiteSpace=wrap;rounded=0;" vertex="1" parent="WIyWlLk6GJQsqaUBKTNV-1">
          <mxGeometry x="350" y="490" width="60" height="30" as="geometry" />
        </mxCell>
        <mxCell id="-dKLI6m3g1VmYk872qav-26" value="no" style="text;html=1;align=center;verticalAlign=middle;whiteSpace=wrap;rounded=0;" vertex="1" parent="WIyWlLk6GJQsqaUBKTNV-1">
          <mxGeometry x="440" y="655" width="60" height="30" as="geometry" />
        </mxCell>
        <mxCell id="-dKLI6m3g1VmYk872qav-27" value="" style="endArrow=none;html=1;rounded=0;exitX=1;exitY=0.5;exitDx=0;exitDy=0;" edge="1" parent="WIyWlLk6GJQsqaUBKTNV-1" source="-dKLI6m3g1VmYk872qav-9">
          <mxGeometry width="50" height="50" relative="1" as="geometry">
            <mxPoint x="390" y="610" as="sourcePoint" />
            <mxPoint x="640" y="680" as="targetPoint" />
          </mxGeometry>
        </mxCell>
        <mxCell id="-dKLI6m3g1VmYk872qav-28" value="" style="endArrow=none;html=1;rounded=0;" edge="1" parent="WIyWlLk6GJQsqaUBKTNV-1">
          <mxGeometry width="50" height="50" relative="1" as="geometry">
            <mxPoint x="640" y="680" as="sourcePoint" />
            <mxPoint x="640" y="139" as="targetPoint" />
          </mxGeometry>
        </mxCell>
        <mxCell id="-dKLI6m3g1VmYk872qav-29" value="" style="endArrow=classic;html=1;rounded=0;" edge="1" parent="WIyWlLk6GJQsqaUBKTNV-1">
          <mxGeometry width="50" height="50" relative="1" as="geometry">
            <mxPoint x="640" y="140" as="sourcePoint" />
            <mxPoint x="400" y="140" as="targetPoint" />
          </mxGeometry>
        </mxCell>
        <mxCell id="-dKLI6m3g1VmYk872qav-31" value="end" style="ellipse;whiteSpace=wrap;html=1;" vertex="1" parent="WIyWlLk6GJQsqaUBKTNV-1">
          <mxGeometry x="342" y="860" width="116" height="60" as="geometry" />
        </mxCell>
      </root>
    </mxGraphModel>
  </diagram>
</mxfile>
